<svg xmlns="http://www.w3.org/2000/svg" width="37.709" height="28.843" viewBox="0 0 37.709 28.843">
  <g id="email_1_" data-name="email (1)" transform="translate(0.25 -60.75)">
    <g id="Group_18081" data-name="Group 18081" transform="translate(0 61)">
      <path id="Path_18357" data-name="Path 18357" d="M33.939,61H3.27A3.276,3.276,0,0,0,0,64.27v21.8a3.276,3.276,0,0,0,3.27,3.27H33.939a3.276,3.276,0,0,0,3.27-3.27V64.27A3.276,3.276,0,0,0,33.939,61Zm-.452,2.18L18.674,77.994,3.732,63.18ZM2.18,85.621V64.711l10.5,10.41Zm1.542,1.542L14.228,76.656l3.681,3.65a1.09,1.09,0,0,0,1.538,0l3.59-3.59,10.45,10.45Zm31.307-1.542-10.45-10.45,10.45-10.45Z" transform="translate(0 -61)" fill="#707070" stroke="#fff" stroke-width="0.5"/>
    </g>
  </g>
</svg>
