<svg xmlns="http://www.w3.org/2000/svg" width="37.096" height="37.15" viewBox="0 0 37.096 37.15">
  <g id="phone-call" transform="translate(-0.344 0)">
    <g id="Group_18080" data-name="Group 18080" transform="translate(0.344 0)">
      <path id="Path_18354" data-name="Path 18354" d="M29.677,48.27a3.654,3.654,0,0,0-2.65-1.215,3.778,3.778,0,0,0-2.682,1.207l-2.478,2.47c-.2-.11-.408-.212-.6-.314-.282-.141-.549-.274-.776-.416a26.929,26.929,0,0,1-6.453-5.881,15.887,15.887,0,0,1-2.117-3.34c.643-.588,1.239-1.2,1.819-1.788.22-.22.439-.447.659-.666a3.6,3.6,0,0,0,0-5.426l-2.141-2.141c-.243-.243-.494-.494-.729-.745-.47-.486-.964-.988-1.474-1.458a3.711,3.711,0,0,0-2.627-1.153A3.841,3.841,0,0,0,4.76,28.559l-.016.016L2.078,31.264a5.736,5.736,0,0,0-1.7,3.646,13.745,13.745,0,0,0,1,5.818,33.76,33.76,0,0,0,6,10,36.9,36.9,0,0,0,12.286,9.621,19.143,19.143,0,0,0,6.9,2.039c.165.008.337.016.494.016a5.908,5.908,0,0,0,4.524-1.944c.008-.016.024-.024.031-.039A17.826,17.826,0,0,1,32.986,59c.337-.321.682-.659,1.019-1.011a3.911,3.911,0,0,0,1.184-2.713,3.768,3.768,0,0,0-1.207-2.689Zm2.807,8.256c-.008,0-.008.008,0,0-.306.329-.619.627-.957.957a20.618,20.618,0,0,0-1.513,1.568A3.78,3.78,0,0,1,27.066,60.3c-.118,0-.243,0-.361-.008a17.006,17.006,0,0,1-6.116-1.835A34.829,34.829,0,0,1,9.017,49.391a31.832,31.832,0,0,1-5.645-9.4,11.2,11.2,0,0,1-.878-4.908,3.6,3.6,0,0,1,1.082-2.329L6.249,30.08a1.782,1.782,0,0,1,1.192-.557,1.677,1.677,0,0,1,1.145.549l.024.024c.478.447.933.91,1.411,1.4.243.251.494.5.745.761L12.906,34.4a1.5,1.5,0,0,1,0,2.431c-.227.227-.447.455-.674.674-.659.674-1.286,1.3-1.968,1.913-.016.016-.031.024-.039.039a1.6,1.6,0,0,0-.408,1.78l.024.071a17.185,17.185,0,0,0,2.533,4.132l.008.008a28.778,28.778,0,0,0,6.963,6.335,10.706,10.706,0,0,0,.964.525c.282.141.549.274.776.416.031.016.063.039.094.055a1.7,1.7,0,0,0,.776.2,1.676,1.676,0,0,0,1.192-.541l2.682-2.682a1.774,1.774,0,0,1,1.184-.588,1.6,1.6,0,0,1,1.129.572l.016.016,4.32,4.32A1.55,1.55,0,0,1,32.484,56.526Z" transform="translate(-0.344 -25.257)" fill="#707070"/>
      <path id="Path_18355" data-name="Path 18355" d="M245.815,88.025a10.091,10.091,0,0,1,8.217,8.217,1.052,1.052,0,0,0,1.043.878,1.4,1.4,0,0,0,.18-.016,1.06,1.06,0,0,0,.87-1.223,12.2,12.2,0,0,0-9.942-9.942,1.064,1.064,0,0,0-1.223.862A1.047,1.047,0,0,0,245.815,88.025Z" transform="translate(-225.765 -79.188)" fill="#707070"/>
      <path id="Path_18356" data-name="Path 18356" d="M266.376,16.388A20.091,20.091,0,0,0,250,.016,1.057,1.057,0,1,0,249.66,2.1a17.946,17.946,0,0,1,14.631,14.631,1.052,1.052,0,0,0,1.043.878,1.4,1.4,0,0,0,.18-.016A1.039,1.039,0,0,0,266.376,16.388Z" transform="translate(-229.297 0)" fill="#707070"/>
    </g>
  </g>
</svg>
